<svg xmlns="http://www.w3.org/2000/svg" viewBox="0 0 350.32 345.1"><g id="Layer_2" data-name="Layer 2"><path d="M143.66,421.63c-5-1.82-8.1-8.26-11.21-12.34L121,394.18,98,364l-14.49-19c-3.06-4-6.4-8.15-7.68-13.14-1.4-5.45-.42-12.11-.43-17.72q0-19,0-38c0-6.2-1.3-14,.16-20a2.38,2.38,0,0,1,1.14-1.77c1.09-.47,2.16.63,2.83,1.6,2.45,3.54,5.9,7.21,7.82,11q5.63,7.53,11.28,15,11.28,15,22.66,30t22.94,30Q150,349.5,155.73,357l5.78,7.47c1.61,2.08,3.25,5.23,5.6,6.48s5.27.75,7.73.75l9.49,0,19,0,37.95.07,14,0,6.83,0c1.91,0,4.17.38,5.93-.54,2.34-1.23,4.25-3.8,6.12-5.63l13.58-13.26L314.9,325.9l22.81-22.28,11.4-11.13c1.92-1.87,7.88-6.05,8-8.91.08-2.53-4.28-6.54-5.73-8.61-2.56-3.65-5.24-7-8.1-10.43-5.28-6.3-9.71-13.31-15.14-19.47-3.83-4.35-7.06-9.12-10.66-13.62-5.08-6.33-10.22-12.65-14.91-19.31-1.81-2.57-4-3.28-7-3.24-5.62.09-11.42-.33-17,.13-4.93.4-7.5,3-10.88,6.32-1.91,1.9-3.92,3.69-5.93,5.49-6.23,6.22-13.24,11.83-19.81,17.7-6.37,5.7-12.55,12.35-19.8,16.87-4.09,2.54-8.65-5.21-10.7-7.83a209,209,0,0,0-14.75-16.71c-2.59-2.66-6.67-5.21-7.67-9-1.1-4.14,4.06-7.4,6.78-9.62,18.51-15.11,35.56-31.9,53.73-47.42,2.3-2,4.81-4.8,7.8-5.7,3.42-1,8.05-.39,11.62-.46l51-1c5.49-.11,8.28,5.93,11.28,9.71l11.7,14.76q11.68,14.77,23.3,29.61,23.22,29.64,46.19,59.51c3.63,4.72,8.54,9.57,11.11,15,1.28,2.69-.27,4.07-2.09,5.86l-6.78,6.65L401,312l-27.13,26.63L319.58,391.9c-6.36,6.36-12.84,12.6-19.26,18.9-3.19,3.13-6.22,6.94-10.13,9.22s-9,2.26-13.45,2.24c-25.19,0-50.38-.16-75.57-.11q-14.62,0-29.24.09l-14.81.07c-4.28,0-9,.8-13.16-.58Z" transform="translate(-74.84 -77.45)" fill="#584b93"/><path d="M285.73,77.87l65.73,0c2.55,0,5.51,0,7.73,1.41s3.91,3.93,5.49,6l11.47,15,23,30.1,13.77,18.07c2.85,3.75,5.71,7.49,8.41,11.36a19.32,19.32,0,0,1,3.59,11.91q.08,9.49.12,19,.09,19,0,38c0,3.33.38,7-.19,10.26-.51,3-2.68,3.86-4.67,1.3q-23.12-29.85-46-59.86-11.44-15-22.85-30.06-5.7-7.51-11.38-15c-1.41-1.87-3-5.05-5-6.24-1.45-.85-3.74-.64-5.35-.6-1.06,0-2.12.15-3.17.14-4-.06-8,0-11.94,0l-24.31.09-34.42.12-17.39.07c-5.29,0-8.31,2.77-12,6.37l-11.62,11.45-54.3,53.52c-2.87,2.83-5.74,5.67-8.66,8.45-1.49,1.43-3,2.95-4.55,4.27-1.21,1-2.44,1.65-2.57,3.43a4.92,4.92,0,0,0,.91,2.94c1.17,1.83,2.74,3.38,4.06,5.1q5.72,7.47,11.47,14.91,11.49,14.88,23.09,29.69,6.91,8.84,13.88,17.63c1.45,1.85,2.81,4,5.08,4.91,2.78,1.07,6.25.79,9.16.72,4.68-.1,9.48-.23,13.79-2,4.64-2,8.18-5.65,11.7-9.12,3.71-3.66,7.84-6.77,11.68-10.27,8.8-8,17.57-16.1,26.9-23.49,2.28-1.81,4.5-4.4,7.24-1.94a81,81,0,0,1,6.49,6.87l10,11.35,8.55,9.74c2.47,2.81,5.86,5,3.16,8.71-2,2.79-5.08,5-7.65,7.34q-8.65,7.79-17.39,15.5L265,324.23l-9.08,8c-2.8,2.48-5.51,5.36-8.69,7.3s-6.85,2-10.44,2c-16.82.25-33.65.49-50.47.53a22.49,22.49,0,0,1-7-.72c-3.61-1.15-5.33-4.5-7.54-7.31q-23.35-29.8-46.65-59.66-11.65-14.93-23.28-29.86L90.23,229.63c-3.6-4.63-9-9.44-11.48-14.73a5.85,5.85,0,0,1-.67-2.57,6.16,6.16,0,0,1,2.26-4.08c4-3.75,8-7.52,11.88-11.37q13.43-13.27,26.88-26.53Q146,143.86,173,117.47q11.34-11.14,22.76-22.2c9.16-8.92,15.42-18.17,29.44-17.81,19.73.51,39.3.41,59,.41Z" transform="translate(-74.84 -77.45)" fill="#584b93"/></g></svg>